<svg width="93" height="90" viewBox="0 0 93 90" fill="none" xmlns="http://www.w3.org/2000/svg">
<path d="M44.3292 69.1031C44.0614 69.1335 43.845 69.0862 43.6781 69.0272C43.4664 68.7484 43.2318 67.9801 43.1232 67.3763C42.6168 65.511 43.2745 63.5977 44.0207 61.8818C44.3736 61.0059 44.7006 60.1196 45.0276 59.2332C45.2313 58.9941 45.4304 58.7521 45.6217 58.5061C45.9293 58.7013 46.2899 58.8123 46.6548 58.8134C46.6603 58.813 46.6657 58.8127 46.6712 58.8124C46.6825 58.8172 46.6949 58.8241 46.7041 58.8301C47.0465 60.92 47.4463 62.2877 48.1095 63.3141C48.0834 63.3715 48.0572 63.429 48.0344 63.4873C47.861 63.9744 47.8943 64.5115 47.8526 65.0214C47.8701 65.2767 47.9577 65.5312 47.9294 65.7904C47.8638 66.2491 47.633 66.676 47.3352 67.0259C46.6003 68.0179 45.5145 68.8424 44.3292 69.1031ZM35.6023 64.994C32.7593 65.9153 29.383 66.6417 26.8333 67.0095C25.9834 67.1076 25.1269 67.1503 24.2733 67.1686C25.0019 66.9485 25.7296 66.7317 26.4643 66.5221C28.0522 66.0488 29.6742 65.6687 31.2054 65.019C35.1163 63.2864 38.8322 61.1523 42.6629 59.2513C43.3274 58.9298 43.9716 58.5635 44.6321 58.2302C44.8103 58.1866 44.9876 58.1464 45.1621 58.0965C45.2665 58.2283 45.3904 58.3403 45.5255 58.4374C45.4249 58.5321 45.3219 58.6227 45.2222 58.7142C45.2531 58.6258 45.2872 58.5382 45.3193 58.4519C45.234 58.5831 45.1524 58.7205 45.0684 58.8538C42.2576 61.3719 38.9466 63.2778 35.6023 64.994ZM46.5803 57.1873C46.6241 57.0773 46.6691 56.9694 46.7144 56.8669C46.7435 56.9123 46.7758 56.9586 46.806 57.0061C46.7308 57.0665 46.6567 57.1291 46.5803 57.1873ZM47.0141 56.1093C47.0764 55.9237 47.1408 55.7368 47.2043 55.5533C50.7018 50.9669 53.8869 46.1428 57.4882 41.6432C59.4677 39.5345 61.4316 37.4036 63.2954 35.1923C63.301 35.2851 63.3053 35.3757 63.3105 35.4631C63.4083 38.0783 62.968 40.7105 62.1214 43.1819C60.8383 46.6142 58.0017 50.6186 54.9179 53.3338C52.6282 55.4776 49.8366 57.0357 46.5332 57.6635C46.5292 57.6517 46.5261 57.6366 46.5233 57.6269C46.524 57.6378 46.5259 57.6508 46.5278 57.6638C46.5202 57.6654 46.5147 57.6657 46.5071 57.6673C46.4671 57.6763 46.4293 57.684 46.3935 57.6905C46.4217 57.6121 46.4486 57.5316 46.4777 57.4499C46.6317 57.3694 46.7833 57.2847 46.9349 57.2C46.9612 57.2357 46.9865 57.2747 47.0107 57.3116C46.9908 57.2723 46.9709 57.2329 46.951 57.1935C48.6115 56.2688 50.1441 55.1128 51.5128 53.8001C53.1857 52.0604 54.5672 50.0653 55.9092 48.0705C55.9333 48.0339 55.9574 47.9974 55.9815 47.9609C55.7656 48.1788 55.5476 48.3979 55.3316 48.6157C52.5496 51.4477 49.9457 54.4902 46.8426 56.9765C46.8114 56.9126 46.778 56.85 46.7468 56.7861C46.8717 56.4937 46.9783 56.243 47.0141 56.1093ZM44.89 56.9403C44.2007 54.8219 43.5309 52.3167 43.4549 50.4485C43.3973 49.4877 43.231 48.5246 43.4421 47.5696C43.8325 45.1102 44.6192 42.7356 45.3221 40.3528C45.8568 38.5445 46.3204 36.7207 46.8284 34.9052C47.2869 33.234 47.7455 31.5628 48.1994 29.8886C48.339 30.2966 48.484 30.7043 48.6093 31.1121C48.9479 32.227 48.8274 32.1356 48.9011 33.2171C48.9255 34.0079 48.9731 34.7994 48.9702 35.5918C49.0452 40.4373 48.6262 45.3222 47.1679 49.9627C46.7853 51.1833 46.4249 52.4081 46.0544 53.6302C46.0584 53.5686 46.0603 53.5082 46.0643 53.4466C46.1065 52.4338 46.142 51.4192 46.1469 50.4053C46.2731 47.4884 46.1624 44.5671 46.2414 41.6465C45.5099 45.1783 45.1841 48.8062 45.3992 52.4072C45.4471 53.224 45.4675 54.0566 45.6782 54.8472C45.6295 55.0024 45.582 55.1598 45.5311 55.3163C45.3616 55.8886 45.1454 56.4483 45.0306 57.0371C44.9837 57.0048 44.9368 56.9726 44.89 56.9403ZM44.1362 56.4322C43.9392 55.7241 43.7277 54.9566 43.5724 54.3402C43.4482 53.8414 43.3392 53.3396 43.2302 52.8377C43.6534 54.2116 44.2036 55.546 44.778 56.8638C44.5623 56.72 44.3486 56.5751 44.1362 56.4322ZM41.7141 46.8756C41.3605 45.8963 40.7594 45.046 40.1466 44.2193C39.2696 42.9548 38.3882 41.6873 37.2773 40.6144C37.0485 40.3991 36.8134 40.1875 36.5816 39.9767C36.3095 39.1679 36.1658 38.3076 35.9555 37.4885C35.5857 35.855 35.2269 34.2208 34.9274 32.5721C34.9847 34.4764 35.235 36.3823 35.7701 38.2141C35.9282 38.6934 36.0724 39.1975 36.2581 39.6806C35.1865 38.7148 34.0842 37.7839 32.9625 36.8781C32.9695 36.538 32.9741 36.2134 32.9803 35.8963C33.0095 36.1083 33.0332 36.3205 33.045 36.5368C33.0642 36.1444 33.0679 35.7497 33.0346 35.3594C33.0248 35.2691 33.0117 35.1778 32.9998 35.0887C33.1488 29.1001 33.5642 27.1685 36.7282 20.7327C37.0817 20.0682 37.4014 19.3697 37.7841 18.7166C38.0908 19.4631 38.5002 20.2406 39.0183 20.8396C39.5556 21.5404 40.2389 22.0977 40.8581 22.7202C42.0751 23.9917 43.182 25.1996 44.0606 26.6382C45.0558 28.3032 45.4735 30.2593 45.7334 32.1624C45.7483 32.4278 45.7531 32.6905 45.7516 32.9569C45.7217 33.0617 45.6939 33.1652 45.6619 33.2713C44.8751 36.2278 43.9914 39.1583 43.2191 42.1205C43.3226 39.6094 43.3549 37.097 43.3464 34.5827C43.3558 33.5521 43.3706 32.5212 43.3984 31.4884C43.4113 30.6987 43.4878 29.892 43.2381 29.1268C43.1851 28.9568 43.1288 28.786 43.068 28.6121C43.1459 28.4683 43.2035 28.3136 43.2526 28.1638C43.3925 27.7017 43.3089 27.2586 43.0592 26.9142C43.041 26.8484 43.0249 26.7815 43.0089 26.7145C42.989 26.4209 42.6904 26.2657 42.4203 26.3115C42.329 26.3049 42.2347 26.3029 42.1443 26.3127C41.9107 26.2555 41.6824 26.2857 41.4933 26.3836C41.2996 26.2977 41.0665 26.2656 40.9175 26.4477C40.4436 26.7129 40.2945 27.296 40.3744 27.8062C40.4988 28.5449 41.1946 29.1289 41.9306 29.2151C41.9555 29.4832 41.9579 29.7614 41.9397 30.0967C41.9266 31.1746 41.9454 32.2539 41.9935 33.3303C42.0471 34.9346 42.245 37.2097 42.3825 38.4605C42.5073 40.2468 42.656 42.0305 42.8135 43.8148C42.6421 44.6283 42.505 45.4474 42.4097 46.2706C42.0449 45.5408 41.7639 44.7654 41.5801 43.9678C41.3865 42.9329 41.2765 41.8865 40.9844 40.8718C40.8547 39.8791 40.9716 38.8684 40.9368 37.8689C40.9317 36.6518 40.9023 35.4318 40.8829 34.2145C40.619 36.1885 40.369 38.1769 40.3166 40.17C40.3239 40.7109 40.5294 41.2136 40.6397 41.7373C40.922 43.4101 41.3987 45.0722 42.3858 46.4737C42.3487 46.8057 42.3214 47.135 42.3031 47.4703C41.4583 45.0972 40.1911 42.8436 39.8068 40.3288C39.5988 38.0512 40.2794 35.6982 39.576 33.4722C39.5468 33.3874 39.524 33.2989 39.5032 33.2092C39.62 33.1277 39.7226 33.0119 39.8035 32.8438C39.9491 32.5677 39.9067 32.2448 39.8289 31.9536C39.6507 31.1753 39.0655 30.4796 38.2698 30.295C37.7997 30.1852 37.4647 30.6469 37.2092 30.9723C36.795 31.5758 37.1666 32.3073 37.7095 32.6999C37.7948 32.8427 37.9547 32.9679 38.1198 32.9996C38.2035 33.0615 38.289 33.1166 38.3763 33.165C38.48 33.5599 38.5913 33.9532 38.6234 34.361C38.6652 34.8933 38.6498 36.7351 38.686 37.7027C38.544 41.3262 40.7767 44.3666 42.3029 47.4846C42.2966 47.5814 42.2916 47.6803 42.2866 47.7792C42.3545 48.5082 42.4563 49.2374 42.5788 49.9631C42.3548 48.9147 42.1156 47.8694 41.7141 46.8756ZM54.0982 33.8343C53.9374 33.6391 53.7305 33.4959 53.4826 33.4922C53.7168 33.3597 53.9868 33.2942 54.1519 33.3797C54.2285 33.5416 54.1961 33.6959 54.0982 33.8343ZM49.2715 26.4821C49.3571 26.3564 49.4473 26.2338 49.542 26.1141C50.1106 25.4357 50.7732 24.8469 51.4127 24.2377C52.5582 23.003 53.9749 22.3799 55.6457 21.6441C56.497 21.2599 57.3168 20.8063 58.0872 20.2769C58.0997 20.3769 58.1102 20.4782 58.1261 20.5792C58.2469 22.8281 59.6689 24.6308 60.1388 26.5991C60.662 28.4151 60.6244 29.7049 60.5982 31.6066C60.6064 32.4915 60.706 33.3829 60.6089 34.2665C60.4959 34.9757 60.3242 35.6763 60.1 36.3593C60.0385 36.4287 59.9781 36.5003 59.9153 36.5676C58.5691 38.0905 57.1756 39.5756 55.8166 41.0861C53.5891 44.0469 51.564 47.1675 49.7427 50.3965C49.0759 51.5553 48.4194 52.7223 47.7684 53.889C48.4699 51.7923 49.1309 49.6794 49.5964 47.5213C50.5095 45.9378 51.3198 44.3036 52.0781 42.6429C52.6119 41.4592 53.1963 40.2604 53.3458 38.954C53.4907 37.8255 53.6255 36.6942 53.692 35.5572C53.9569 35.4975 54.1898 35.3432 54.3351 35.0617C54.4583 34.8691 54.4919 34.6435 54.4178 34.4321C54.5632 34.2437 54.6533 34.0279 54.6346 33.7901C54.6006 33.4426 54.289 33.1622 53.9589 33.0845C53.7067 33.0634 53.4725 33.1958 53.2928 33.3786C53.2123 33.298 53.1159 33.2238 53.0015 33.1627C52.4379 32.8273 52.0878 33.0379 51.972 33.6639C51.8537 34.1587 51.8633 34.7377 52.2696 35.099C52.3117 35.1425 52.3567 35.1815 52.4039 35.2192C52.3871 35.4492 52.3689 35.6771 52.3544 35.8917C52.2389 37.1248 52.2736 38.3785 52.0166 39.5916C51.324 42.183 50.4811 44.7342 49.6457 47.2838C49.7049 47.0096 49.7586 46.7357 49.8089 46.4609C50.3035 43.5461 50.4735 40.5926 50.4561 37.6373C51.0844 35.2524 51.4825 32.8112 51.6469 30.3468C51.0937 32.3042 50.6897 34.2997 50.4381 36.3146C50.4117 35.2906 50.3689 34.2675 50.3076 33.2466C50.2914 32.3184 49.8996 31.4686 49.5981 30.6089C49.3379 29.9967 48.9604 28.5455 48.9868 28.3467C48.8827 27.7262 49.1711 27.0908 49.2715 26.4821ZM62.5746 33.3519C62.1948 33.8338 61.8153 34.3212 61.4267 34.8025C61.4536 34.7023 61.4771 34.6012 61.4994 34.4979C61.852 34.1108 62.2117 33.7309 62.5746 33.3519ZM67.1381 29.0367C68.5122 27.8311 70.2549 26.1781 71.4595 25.3246C72.0465 24.9179 72.6604 24.5578 73.3004 24.2476C73.2987 24.274 73.2991 24.2992 73.2998 24.3298C73.1836 26.3004 72.8978 28.256 72.5952 30.2071C72.1841 32.523 71.8439 34.8687 71.0358 37.089C70.531 38.5724 69.2369 40.435 68.0613 41.8622C67.838 42.1407 67.6243 42.4308 67.4056 42.7124C66.2281 43.3584 65.0787 44.053 63.9567 44.7855C63.7317 44.9437 63.5162 45.1133 63.3076 45.2902C63.858 44.0715 64.2913 42.8018 64.5584 41.484C66.37 38.9865 67.4387 35.9802 68.3372 33.0411C67.487 34.7577 66.6084 36.4595 65.7831 38.19C65.4566 38.9208 65.1133 39.647 64.7497 40.3625C65.0341 38.4727 65.1622 36.5179 64.68 34.6555C64.5503 34.0102 64.1331 33.4293 63.517 33.1693C63.2914 33.0623 63.0075 33.0059 62.7872 33.1331C64.1742 31.7053 65.6253 30.3395 67.1381 29.0367ZM64.1966 46.1354C65.2455 45.4084 66.4252 44.908 67.5636 44.3411C70.3612 42.8812 73.3067 41.7511 76.3448 40.9037C77.2468 40.6512 78.2239 40.2791 79.0674 40.0378C78.8353 41.1914 78.4153 42.3178 78.0221 43.4175C77.3745 45.0595 75.7486 47.8198 74.4288 49.638C73.1368 51.5532 71.6795 53.3435 69.9282 54.8545C67.745 56.9481 65.9081 58.5848 63.1992 59.841C59.3405 61.6592 54.9766 61.4675 50.7471 60.1927C49.4576 59.8132 48.1715 59.3809 46.9506 58.8121C48.7764 58.6334 50.6209 58.8394 52.4273 58.446C55.0172 58.055 57.4123 56.9546 59.8268 55.9956C60.0245 55.9125 60.2207 55.8218 60.4172 55.7366C60.2057 55.7909 59.9933 55.8486 59.7797 55.9041C56.838 56.6056 53.9747 57.6091 50.996 58.1682C50.0725 58.3737 49.1252 58.4207 48.1893 58.546C48.4348 58.4918 48.6757 58.4346 48.9188 58.3761C51.112 57.8555 53.0951 56.8291 54.8909 55.5127C56.6729 54.9696 58.4751 54.4714 60.1724 53.7033C61.7646 53.0467 63.3892 52.4363 64.8504 51.5136C66.7318 50.4726 68.2984 48.9694 69.9353 47.5978C68.0464 48.7336 66.2667 50.0633 64.261 50.9869C62.7828 51.7725 61.1971 52.3181 59.6773 53.012C58.481 53.6207 57.2392 54.1259 56.0047 54.6438C57.5096 53.3908 58.8737 51.948 60.107 50.4593C60.6656 49.7442 61.1996 49.001 61.6937 48.2328C62.492 47.4923 63.2886 46.7443 64.1966 46.1354ZM49.7371 62.4986C53.0028 65.2053 57.0907 66.8414 61.2078 67.7405C62.262 67.9424 63.3294 68.0887 64.398 68.1834C61.5717 68.2336 58.4937 67.7598 55.7972 66.9245C54.0062 66.4052 52.0653 65.5235 50.207 64.6674C48.3068 63.8074 47.5029 61.2411 46.8815 58.9565C47.8451 60.1314 48.5726 61.4991 49.7371 62.4986ZM43.8727 69.8581C43.2841 71.2259 43.5071 71.6903 43.9748 69.898C44.5478 70.0981 45.1921 70.0792 45.7317 69.7761C47.0735 69.1652 48.3756 67.6001 48.4374 66.093C48.4323 65.7711 48.2854 65.4775 48.2218 65.1669C48.1856 64.654 48.0659 64.1385 48.1106 63.6241C48.1199 63.5424 48.1381 63.4614 48.1562 63.3803C49.2435 65.0091 51.0286 65.7775 54.3902 67.2709C58.1693 68.8367 62.2942 69.4997 66.3754 69.2898C67.2317 69.2077 68.0919 69.098 68.927 68.8814C69.0515 68.8377 69.2332 68.8345 69.2519 68.6712C69.2576 68.5832 69.2363 68.5023 69.1911 68.4239C68.3675 67.2274 66.7351 67.3057 65.4403 67.2202C64.0857 67.1437 62.8724 67.0477 61.6073 66.8377C57.5686 66.1673 52.5172 64.4718 49.4494 61.7949C48.5479 60.9231 47.8282 59.8869 46.9671 58.9776C48.3914 59.7764 49.921 60.3957 51.4564 60.9468C55.4223 62.3765 59.9746 62.9481 63.9703 61.3331C66.799 60.1717 69.1753 58.2122 71.3593 56.1153C73.03 54.6848 74.4828 53.0383 75.7261 51.2247C76.9959 49.4862 78.18 47.6728 79.1222 45.7337C79.7751 44.3993 80.2433 42.9795 80.624 41.5453C80.753 40.8637 81.0491 40.1194 80.7567 39.4466C79.7376 37.657 78.1193 38.6648 76.6403 39.1261C74.4348 39.8601 72.1706 40.4386 70.0375 41.3765C69.8062 41.4846 69.574 41.5961 69.3439 41.7063C72.2996 38.7741 73.1387 35.9766 73.9337 31.7135C74.2317 30.1604 74.4398 28.5886 74.5896 27.0137C74.6977 25.8753 74.8499 24.7058 74.5958 23.5759C74.4272 23.1028 73.9851 22.748 73.5109 22.6066C73.2333 22.5269 72.9824 22.7282 72.7328 22.8243C70.5188 23.7834 68.8422 25.5704 67.2259 27.3056C65.1538 29.4594 63.2358 31.6795 61.5621 34.137C61.6502 33.5411 61.6726 32.9294 61.7233 32.3324C61.8826 30.9696 62.0652 29.5933 61.8146 28.2298C61.6508 27.0168 61.2655 25.8554 60.7531 24.7476C60.3919 23.897 60.0641 23.3831 59.8812 22.5623C59.687 21.8102 59.5044 20.3934 59.4803 20.0826C59.4245 19.4624 59.5231 19.3349 59.3598 18.9151C59.1034 18.4955 58.6704 18.127 58.1657 18.0795C58.0433 18.0682 57.9615 18.1465 57.8796 18.2249C57.3233 18.8511 56.978 18.9573 56.422 19.3884C55.0906 20.3011 53.5311 20.809 52.181 21.6844C51.5267 22.1017 50.9434 22.6079 50.4373 23.1939C49.8348 23.8721 49.1891 24.5246 48.6706 25.2701C48.5338 25.1994 48.3861 25.1491 48.2383 25.1328C48.0171 25.1165 47.9772 25.3654 47.8999 25.5202C47.2287 27.4638 46.714 29.4584 46.1735 31.4424C46.147 31.147 46.115 30.852 46.0788 30.5594C45.9128 29.3815 45.6399 28.1947 45.1088 27.1232C44.0248 25.0745 42.4744 23.3036 40.8157 21.7025C40.0607 20.972 39.5439 20.3412 39.0971 19.269C38.8492 18.771 38.7929 18.2528 38.4782 17.6833C38.3165 17.4179 38.0656 17.2182 37.8058 17.0519C38.0704 17.207 37.4431 16.7954 37.2451 16.839C36.997 16.8495 36.8469 17.1226 36.7164 17.3025C36.4022 17.8199 36.1106 18.347 35.8281 18.8801C34.4606 21.5646 33.246 24.3868 32.6604 27.3543C32.3821 29.088 32.3738 30.8297 32.475 32.5703C32.3439 32.1574 32.1879 31.7504 31.9957 31.3587C31.7899 30.9974 31.4746 30.7643 31.2691 30.4084C30.8988 29.8258 30.389 28.9819 29.9229 28.2626C29.3296 27.1959 28.6855 26.1585 28.1273 25.0743C27.319 23.2731 26.5215 21.4516 25.4318 19.7988C25.3573 19.5622 24.024 18.0162 23.429 19.2211C22.8689 20.5499 22.433 21.9425 22.1487 23.3577C21.9323 25.3749 21.7275 27.4023 21.5717 29.4268C21.4786 31.1243 21.6903 32.8265 22.0235 34.4896C22.4956 36.7503 23.395 38.8999 24.4281 40.9583C25.3985 42.9228 26.5269 44.799 27.9384 46.4806C26.7795 44.8452 25.89 43.0599 25.1409 41.2048C23.7882 38.0939 23.0078 34.7121 23.0014 31.6487C23.0585 29.2039 23.3914 26.7721 23.585 24.3388C23.7771 23.2677 24.0788 22.2152 24.4246 21.1852C24.5915 20.7697 24.6181 20.5369 24.7371 20.2931C24.9978 20.73 25.2816 21.2411 25.541 21.7099C26.0926 22.7583 26.5901 23.8352 27.1194 24.8937C27.9796 26.374 28.8835 27.8319 29.8778 29.2263C30.3525 29.9068 30.7902 30.6256 31.3973 31.1929C31.8128 31.854 32.0995 32.595 32.3434 33.3354C32.4286 33.6053 32.5138 33.8752 32.5927 34.1488C32.6719 35.0295 32.7665 35.9125 32.8566 36.7924C32.5606 36.5538 32.2647 36.3152 31.9645 36.079C31.4369 35.669 30.777 34.9515 30.1628 34.2498C29.6362 33.5626 27.6937 31.1227 26.7248 31.4647C26.5829 31.5466 26.6368 31.7329 26.6975 31.8673C26.6954 31.8883 26.7718 32.1577 26.7651 32.2096C26.8022 32.4451 26.8243 32.6838 26.8517 32.9221C27.0529 34.3028 27.0073 35.295 27.0221 36.8566C27.0932 39.1908 27.0839 41.5374 27.3885 43.8553C27.6855 45.4263 28.411 46.8884 29.0976 48.3221C30.1301 50.3355 31.3889 52.2663 33.0093 53.85C32.8989 53.8007 32.7877 53.7548 32.6773 53.7056C30.4351 52.8255 28.3659 51.6139 26.4024 50.2284C24.2667 48.9309 22.205 47.17 19.9586 45.5439C22.0702 47.3523 24.0959 49.2809 26.473 50.7468C27.5678 51.4788 28.6822 52.191 29.8682 52.763C30.9312 53.2394 32.0341 53.6138 33.1418 53.9768C33.4428 54.2634 33.7553 54.5405 34.0811 54.8014C35.2996 55.7868 36.685 56.4499 38.1483 56.8957C37.1389 56.747 36.1358 56.5749 35.1416 56.3497C32.9793 56.1069 30.7586 55.6408 28.9192 54.5338C27.0846 53.2151 25.0472 51.8383 23.0501 50.6246C24.3014 51.5543 25.5793 52.4518 26.8194 53.3964C27.8599 54.2106 28.8644 55.0992 30.0836 55.6408C31.7985 56.444 33.6954 56.8091 35.577 56.9032C36.8597 57.1341 38.1638 57.2454 39.4673 57.2384C40.9884 57.569 42.5669 57.7054 44.1048 57.7523C40.7277 57.2789 36.6571 56.3332 34.4497 54.261C32.6013 52.5661 31.4881 50.6332 30.33 48.2799C29.5708 46.6764 28.9081 45.2204 28.8186 43.3826C28.6846 41.7514 28.5952 38.9845 28.5557 36.8665C28.5962 35.7332 28.4826 34.607 28.3231 33.4847C28.3125 33.4174 28.3053 33.3509 28.2968 33.2824C28.8986 33.9432 29.6224 34.9035 30.3598 35.6328C31.1154 36.4279 32.0104 37.0635 32.8666 37.7441C34.3169 39.0333 35.4045 39.8458 36.5856 41.0306C37.4885 41.9243 38.1437 42.8536 38.9639 43.9955C39.5227 44.7432 40.0628 45.3606 40.4334 46.1493C40.9588 47.1817 41.2666 48.2919 41.6007 49.4038C41.8981 50.4521 42.2676 51.4786 42.5705 52.5266C42.9663 53.809 43.4284 55.0447 43.8999 56.2721C42.209 55.1387 40.572 54.0645 38.9303 52.8547C37.7375 51.9138 36.7193 50.4145 35.8396 48.9935C35.5009 48.4067 35.2302 47.7864 34.916 47.1883C34.9808 47.374 35.0405 47.5655 35.1011 47.7536C35.7399 49.76 36.8718 51.6764 38.449 53.0874C40.1807 54.4627 42.1044 55.569 44.0414 56.6395C44.2077 57.0744 44.3783 57.5069 44.5434 57.9397C44.4665 57.6254 44.3503 57.2039 44.2217 56.7416C44.4416 56.8631 44.6623 56.9814 44.8822 57.103C44.9141 57.1778 44.9448 57.2504 44.9788 57.324C44.9529 57.514 44.9489 57.7027 45.0173 57.8751C44.752 57.9633 44.4848 58.0582 44.2222 58.1562C43.0048 58.3027 41.7838 58.3694 40.5547 58.3391C39.2088 58.3168 37.858 58.3398 36.5189 58.1923C33.2843 57.6282 30.091 56.803 27.1131 55.715C23.4336 54.439 20.042 53.0307 17.2602 50.6829C16.6296 50.0895 15.3881 48.6289 14.6815 47.7377C14.3539 47.2631 14.0532 46.3608 13.8076 45.5931C13.3413 44.3402 13.0485 43.0406 12.7969 41.7342C12.6861 41.0187 12.2912 39.9532 12.1346 39.3348C12.2246 39.3732 12.3124 39.4128 12.3994 39.4558C12.7713 39.645 13.6728 40.2429 14.2662 40.5272C15.7756 41.2289 17.3904 41.6973 19.0108 42.0581C20.7237 42.4079 22.4564 42.8507 23.9609 43.7641C25.7663 45.0517 27.2352 46.7059 28.8226 48.2323C27.9895 47.3323 27.2189 46.3792 26.3994 45.4685C25.7182 44.7434 24.9545 44.1055 24.2032 43.4548C21.592 41.5394 18.2335 41.3038 15.3415 40.1493C14.3716 39.7999 13.7149 39.4108 12.8342 38.849C12.4095 38.583 11.9637 38.349 11.4969 38.1666C11.2954 38.0965 11.0931 37.9563 10.8733 38.0013C10.4325 38.0497 10.866 39.0844 10.9088 39.359C11.3245 40.5339 11.4302 41.7833 11.7141 42.9892C12.183 44.5401 12.5683 46.2493 13.4239 47.6334C13.8395 48.2408 14.3632 48.7518 14.6814 49.1414C15.2389 49.7939 15.7797 50.4616 16.416 51.0403C19.2011 53.4625 22.5852 55.0926 26.0481 56.3016C29.7023 57.6854 33.5296 58.7038 37.4332 59.0031C39.3844 58.978 41.3525 58.8697 43.2767 58.5241C42.7192 58.7472 42.1629 58.9723 41.5987 59.1738C37.7224 60.6436 33.9929 62.4607 30.1614 64.0374C27.2992 65.0771 24.3161 65.746 21.4132 66.6566C21.0051 66.7764 20.5954 66.8886 20.1867 66.9975C19.8468 67.1768 20.3174 67.7326 20.4952 67.8841C20.9111 68.2767 21.4915 68.3624 22.0401 68.3196C22.5644 68.3275 23.0869 68.3422 23.6102 68.3535C25.8608 68.3872 28.1125 68.2761 30.3161 67.7834C32.5751 67.3914 34.839 66.827 36.9262 65.8733C39.6069 64.1816 42.2223 62.2988 44.3771 59.9702C44.1338 60.3706 43.8917 60.773 43.6495 61.1755C42.8272 62.5003 41.975 63.9102 41.9132 65.5105C41.9251 66.8225 42.1155 68.2969 43.0401 69.2966C43.2696 69.5426 43.5605 69.7333 43.8727 69.8581Z" fill="#030404"/>
<path d="M56.2825 29.6248C56.4232 29.6678 56.4182 29.7667 56.3691 29.8628C56.2963 29.7806 56.2161 29.7054 56.1215 29.6443C56.1288 29.6373 56.1351 29.6336 56.1423 29.6266C56.1894 29.6249 56.2373 29.6198 56.2825 29.6248ZM56.5645 29.4478C56.5798 29.4842 56.5906 29.5175 56.5959 29.5512C56.5958 29.6049 56.5843 29.668 56.5694 29.7303C56.5071 29.642 56.4109 29.5732 56.3088 29.5333C56.3912 29.4999 56.4772 29.4728 56.5645 29.4478ZM55.4893 29.4445C55.3837 29.4376 55.2824 29.4481 55.2134 29.4851C55.1208 29.5301 55.1547 29.6574 55.129 29.74C54.9862 30.2263 55.1887 30.7336 55.5454 31.0727C55.6637 31.1993 55.786 31.284 55.9101 31.3423C55.9114 31.3641 55.9148 31.3847 55.9161 31.4066C56.0299 32.4451 55.7703 33.4677 55.608 34.4877C54.981 38.9392 52.5804 42.5591 50.2307 46.4236C53.1716 43.226 56.188 39.7335 56.876 35.2948C57.1293 33.9285 57.355 32.5047 56.9567 31.1447C57.2534 30.8661 57.4404 30.422 57.3956 29.9678C57.3518 29.6767 57.1515 29.4422 56.9863 29.2099C56.8717 29.0163 56.6243 28.7101 56.3272 28.763C56.074 28.9261 55.7464 28.9995 55.5621 29.2527C55.5284 29.3117 55.5072 29.3776 55.4893 29.4445Z" fill="#030404"/>
</svg>
